<svg id="visual" viewBox="0 0 900 600" width="900" height="600" xmlns="http://www.w3.org/2000/svg" xmlns:xlink="http://www.w3.org/1999/xlink" version="1.1"><rect x="0" y="0" width="900" height="600" fill="#1E1E2E"></rect><path d="M0 399L21.5 391.3C43 383.7 86 368.3 128.8 372.3C171.7 376.3 214.3 399.7 257.2 406.2C300 412.7 343 402.3 385.8 390.8C428.7 379.3 471.3 366.7 514.2 374.3C557 382 600 410 642.8 420C685.7 430 728.3 422 771.2 422.5C814 423 857 432 878.5 436.5L900 441L900 601L878.5 601C857 601 814 601 771.2 601C728.3 601 685.7 601 642.8 601C600 601 557 601 514.2 601C471.3 601 428.7 601 385.8 601C343 601 300 601 257.2 601C214.3 601 171.7 601 128.8 601C86 601 43 601 21.5 601L0 601Z" fill="#3ddc97"></path><path d="M0 458L21.5 450.7C43 443.3 86 428.7 128.8 419.7C171.7 410.7 214.3 407.3 257.2 414C300 420.7 343 437.3 385.8 442.7C428.7 448 471.3 442 514.2 434.2C557 426.3 600 416.7 642.8 410.7C685.7 404.7 728.3 402.3 771.2 413C814 423.7 857 447.3 878.5 459.2L900 471L900 601L878.5 601C857 601 814 601 771.2 601C728.3 601 685.7 601 642.8 601C600 601 557 601 514.2 601C471.3 601 428.7 601 385.8 601C343 601 300 601 257.2 601C214.3 601 171.7 601 128.8 601C86 601 43 601 21.5 601L0 601Z" fill="#32cb8d"></path><path d="M0 487L21.5 487.7C43 488.3 86 489.7 128.8 486.5C171.7 483.3 214.3 475.7 257.2 469.8C300 464 343 460 385.8 460.3C428.7 460.7 471.3 465.3 514.2 473.8C557 482.3 600 494.7 642.8 496C685.7 497.3 728.3 487.7 771.2 480C814 472.3 857 466.7 878.5 463.8L900 461L900 601L878.5 601C857 601 814 601 771.2 601C728.3 601 685.7 601 642.8 601C600 601 557 601 514.2 601C471.3 601 428.7 601 385.8 601C343 601 300 601 257.2 601C214.3 601 171.7 601 128.8 601C86 601 43 601 21.5 601L0 601Z" fill="#28bb83"></path><path d="M0 540L21.5 530.7C43 521.3 86 502.7 128.8 492.7C171.7 482.7 214.3 481.3 257.2 486.2C300 491 343 502 385.8 505.7C428.7 509.3 471.3 505.7 514.2 508C557 510.3 600 518.7 642.8 523.7C685.7 528.7 728.3 530.3 771.2 523.5C814 516.7 857 501.3 878.5 493.7L900 486L900 601L878.5 601C857 601 814 601 771.2 601C728.3 601 685.7 601 642.8 601C600 601 557 601 514.2 601C471.3 601 428.7 601 385.8 601C343 601 300 601 257.2 601C214.3 601 171.7 601 128.8 601C86 601 43 601 21.5 601L0 601Z" fill="#1eaa79"></path><path d="M0 555L21.5 556C43 557 86 559 128.8 555.7C171.7 552.3 214.3 543.7 257.2 542.2C300 540.7 343 546.3 385.8 549C428.7 551.7 471.3 551.3 514.2 547.5C557 543.7 600 536.3 642.8 540.2C685.7 544 728.3 559 771.2 559.3C814 559.7 857 545.3 878.5 538.2L900 531L900 601L878.5 601C857 601 814 601 771.2 601C728.3 601 685.7 601 642.8 601C600 601 557 601 514.2 601C471.3 601 428.7 601 385.8 601C343 601 300 601 257.2 601C214.3 601 171.7 601 128.8 601C86 601 43 601 21.5 601L0 601Z" fill="#159a6f"></path></svg>